<svg xmlns="http://www.w3.org/2000/svg" viewBox="0 0 15.49 13.56"><defs><style>.cls-1{fill:#9786bf;}</style></defs><g id="Layer_2" data-name="Layer 2"><g id="Layer_1-2" data-name="Layer 1"><path class="cls-1" d="M8.16,1.45c-1.82,0-3.64,0-5.46,0a1.28,1.28,0,0,0-1.22.93,2,2,0,0,0,0,.42c0,2.66,0,5.32,0,8A1.24,1.24,0,0,0,2.13,12a1.44,1.44,0,0,0,.62.13h8.87c.37,0,.75,0,1.13,0a1.26,1.26,0,0,0,1.31-1.27q0-2.61,0-5.22a1.28,1.28,0,0,0-1.31-1.28q-4.48,0-9,0a1.41,1.41,0,0,1-.41-.07.62.62,0,0,1-.44-.65A.62.62,0,0,1,3.36,3a1.28,1.28,0,0,1,.39-.07h9a2.66,2.66,0,0,1,2.63,1.88,2.82,2.82,0,0,1,.12.87c0,1.72,0,3.44,0,5.15a2.64,2.64,0,0,1-1.87,2.61,2.89,2.89,0,0,1-.88.13c-3.33,0-6.66,0-10,0A2.65,2.65,0,0,1,.24,12,2.57,2.57,0,0,1,0,10.83q0-4,0-8.1A2.61,2.61,0,0,1,1.56.25,2.59,2.59,0,0,1,2.73,0h11a.71.71,0,0,1,.8.61.67.67,0,0,1-.44.77,1.4,1.4,0,0,1-.41.06Z"/><path class="cls-1" d="M12.58,8.24a1,1,0,1,1-1.91,0,.92.92,0,0,1,.95-1A.93.93,0,0,1,12.58,8.24Z"/></g></g></svg>